<svg width="36" height="36" viewBox="0 0 36 36" fill="none" xmlns="http://www.w3.org/2000/svg"><path d="M36 18.007c-.013 9.955-8.094 18.02-18.02 17.993-9.965-.026-18-8.084-17.98-18.026C.02 8.03 8.094-.026 18.02 0 27.97.026 36.013 8.077 36 18.007zm-20.987-3.822h-2.75c-.309 0-.407.098-.407.4v4.183c0 .322.098.42.413.42h2.495c.079 0 .15.007.236.014v9.456c0 .374.085.466.46.466h3.787c.44 0 .519-.078.519-.525v-9.404h3.932c.354 0 .446-.092.446-.46v-4.09c0-.362-.091-.454-.452-.454h-4.229v-2.357h4.209c.387 0 .472-.092.472-.48V7.368c0-.387-.091-.48-.472-.48-1.274 0-2.554-.012-3.827.007-.493.007-.992.04-1.477.132-1.504.269-2.528 1.13-3.007 2.594-.256.768-.335 1.57-.348 2.37-.013.716 0 1.438 0 2.194z" fill="#3B5998"/></svg>